<svg width="27" height="22" viewBox="0 0 27 22" fill="none" xmlns="http://www.w3.org/2000/svg">
<g clip-path="url(#clip0_150_780)">
<path d="M7.76674 2.75356H25.5879L24.3734 12.3906H7.4137L3.97516 0.688477H0" stroke="white" stroke-miterlimit="10"/>
<path d="M7.53369 12.1909L8.11267 15.144H24.7123" stroke="white" stroke-miterlimit="10"/>
<path d="M11.0781 19.529C11.0795 19.8832 10.9731 20.2299 10.7722 20.5252C10.5714 20.8204 10.2852 21.0508 9.94984 21.1874C9.61452 21.3239 9.24515 21.3603 8.88858 21.292C8.53201 21.2238 8.20427 21.0538 7.94683 20.8038C7.68938 20.5538 7.51381 20.2349 7.4424 19.8875C7.37099 19.5402 7.40697 19.18 7.5457 18.8525C7.68444 18.5251 7.91973 18.2452 8.22177 18.0482C8.52382 17.8513 8.87901 17.7461 9.24239 17.7461C9.48313 17.7452 9.72168 17.7906 9.94436 17.8798C10.167 17.969 10.3695 18.1002 10.5401 18.2659C10.7106 18.4315 10.846 18.6283 10.9383 18.8451C11.0306 19.0619 11.0781 19.2943 11.0781 19.529Z" stroke="white" stroke-width="2" stroke-miterlimit="10"/>
<path d="M26.2939 19.5289C26.2939 19.8816 26.1866 20.2263 25.9857 20.5194C25.7848 20.8126 25.4991 21.0412 25.165 21.1761C24.8308 21.311 24.4631 21.3463 24.1084 21.2775C23.7537 21.2088 23.4278 21.039 23.1721 20.7896C22.9163 20.5403 22.7422 20.2226 22.6716 19.8768C22.601 19.5309 22.6373 19.1725 22.7757 18.8467C22.9141 18.5209 23.1485 18.2425 23.4492 18.0466C23.7499 17.8507 24.1035 17.7461 24.4652 17.7461C24.9502 17.7461 25.4153 17.9339 25.7583 18.2683C26.1012 18.6026 26.2939 19.0561 26.2939 19.5289Z" stroke="white" stroke-width="2" stroke-miterlimit="10"/>
</g>
<defs>
<clipPath id="clip0_150_780">
<rect width="27" height="22" fill="white"/>
</clipPath>
</defs>
</svg>
