<svg width="25" height="21" viewBox="0 0 25 21" fill="none" xmlns="http://www.w3.org/2000/svg">
<g clip-path="url(#clip0_117_14263)">
<path d="M7.19142 2.6282H23.6925L22.568 11.8272H6.86454L3.6807 0.656982H0" stroke="black" stroke-width="2" stroke-miterlimit="10"/>
<path d="M6.97571 11.6367L7.5118 14.4556H22.8818" stroke="black" stroke-width="2" stroke-miterlimit="10"/>
<path d="M10.2576 18.641C10.2589 18.9792 10.1603 19.3101 9.97433 19.5919C9.78834 19.8738 9.52335 20.0937 9.21287 20.2241C8.90239 20.3544 8.56038 20.3891 8.23022 20.324C7.90007 20.2588 7.5966 20.0966 7.35823 19.8579C7.11985 19.6193 6.95729 19.3149 6.89117 18.9833C6.82505 18.6517 6.85836 18.3079 6.98681 17.9954C7.11527 17.6828 7.33314 17.4156 7.61281 17.2276C7.89248 17.0396 8.22136 16.9392 8.55782 16.9392C8.78073 16.9384 9.00161 16.9817 9.2078 17.0669C9.41399 17.152 9.60145 17.2772 9.75937 17.4353C9.9173 17.5935 10.0426 17.7814 10.1281 17.9883C10.2136 18.1952 10.2576 18.417 10.2576 18.641Z" stroke="black" stroke-width="2" stroke-miterlimit="10"/>
<path d="M24.3463 18.641C24.3463 18.9776 24.247 19.3066 24.0609 19.5865C23.8749 19.8664 23.6104 20.0845 23.301 20.2133C22.9916 20.3421 22.6511 20.3758 22.3227 20.3101C21.9942 20.2445 21.6925 20.0824 21.4557 19.8444C21.2189 19.6064 21.0576 19.3032 20.9923 18.973C20.927 18.6429 20.9605 18.3007 21.0887 17.9898C21.2168 17.6788 21.4339 17.413 21.7123 17.226C21.9908 17.039 22.3181 16.9392 22.653 16.9392C23.1021 16.9392 23.5328 17.1185 23.8503 17.4377C24.1679 17.7568 24.3463 18.1897 24.3463 18.641Z" stroke="black" stroke-width="2" stroke-miterlimit="10"/>
</g>
<defs>
<clipPath id="clip0_117_14263">
<rect width="25" height="21" fill="white"/>
</clipPath>
</defs>
</svg>
