<svg id="Layer_1" data-name="Layer 1" xmlns="http://www.w3.org/2000/svg" viewBox="0 0 87.23 70.39"><defs><style>.cls-1{fill:none;stroke:#000;stroke-linecap:round;stroke-linejoin:round;stroke-width:2px;}</style></defs><line class="cls-1" x1="72.02" y1="17.51" x2="72.02" y2="25.04"/><path class="cls-1" d="M180.67,809.56c-2.26,4.89-4.11,6.14-4.11,6.14s-7.52,11-23.37,20.49c-12.22,7.36,4.22,23.07,4.22,23.07l42,.11s1.6-3-4.51-4-7-3.81-7.38-4.71,2.54-13,3.84-14.75,4.31-6.12,4.81-9.95l.51-16.22h2A22.49,22.49,0,0,0,212,804.91l1.25-4.81a2.18,2.18,0,0,0-1.78-2.71,36.64,36.64,0,0,0-4.84-.51c-1.21.1-6.82,0-6.82,0s-1.61-6.19-11.54-5.89-9.75,3.14-9.75,3.14a67.89,67.89,0,0,0-1.71,6.79s-1.26,8.21-3.9,8.8,5.53,0,5.53,0c5-.51,9.23.6,11.64-8.53" transform="translate(-137.4 -789.98)"/><path class="cls-1" d="M148.67,847.26s-6.91,3.18-7.81-11.67c-.48-7.91-2-2.91-2-2.91s-4.41,19.36,14.4,21.64" transform="translate(-137.4 -789.98)"/><path class="cls-1" d="M169,835.19s13.32,2.51,1.59,17.35c0,0,17.3,4,12,6.78" transform="translate(-137.4 -789.98)"/><path class="cls-1" d="M205.67,814.46s-5.18,14.07-3.94,23.64l3.29,1.13,4.62,1.35s10.64-.36,14-2.12c0,0-1.86-21.6-2.14-21.85l.85-.28-.6-3.36C218.61,812.41,202.63,812.49,205.67,814.46Z" transform="translate(-137.4 -789.98)"/><polyline class="cls-1" points="68.49 24.25 69.01 28.08 84.09 26.63"/><path class="cls-1" d="M207.68,818.06s3.87,13.9,2.39,22.2l-4.7-4.91s-.44-12.73,1-17.29" transform="translate(-137.4 -789.98)"/><line class="cls-1" x1="64.33" y1="48.12" x2="67.97" y2="45.37"/><line class="cls-1" x1="74.3" y1="15.83" x2="79.01" y2="24.25"/></svg>