<svg id="Layer_1" data-name="Layer 1" xmlns="http://www.w3.org/2000/svg" viewBox="0 0 84.27 79.98"><defs><style>.cls-1{fill:none;stroke:#000;stroke-linecap:round;stroke-linejoin:round;stroke-width:2px;}</style></defs><line class="cls-1" x1="67.17" y1="32.39" x2="67.17" y2="62.41"/><path class="cls-1" d="M162.79,998.17a30.35,30.35,0,0,0,21.38-.87c4-1.91,6.69-9.74,9.57-10.3s6.24-.57,6.24-1.44-4.48-1.6-5.6-1.6.16-1.06-2.08-1.29-7,.38-7.59-.65-.08-7.18.88-8.61,4.24-12.73-11.35-15.72c0,0-.76-.23-1.58-.4h0s-11.16-2.92-12.24-2.08.36,2.52,2.16,3,1.68.49,2.64,1.93,2.28,2.76,3.24,2.76-.48,2,1.56,2.88,1,2.52,4.56,3.48a6.22,6.22,0,0,1,.89.31c.16,2.61.29,5.21,1.12,7.19-5.91-3.07-16.06-7-24-6.63l-1.54.09h0s-7.07-.12-9,.72-3.12,2,0,2.28,4.08.12,4.44,1.2-.72,1.44,2.16,1.32,2,.12,3.6,1.2,1.56,1.08,4,1,.72.23,3.48,1,.36.9,2.76.78,2.05.24,4.44,1.93A22.33,22.33,0,0,1,170,984h0c2,1.87.44,1.79,1.49,2.62-1.41,1.08-2.81,2.69-8.74,4.66-2.15.68-8,3.25-15.47,3.15-9.36-.12-9-1.84-11.3-3.27s-2.88,2.41,0,3.25-.16,2.22-1.94,2.13-3.94,2.5-1.9,2.58,3.24.93,2.88,1.89-1.56,2.52.72,1.92c1.38-.36,5.77-2.24,10.87-3.89C146.65,999.08,155,995.48,162.79,998.17Z" transform="translate(-130.35 -954.06)"/><rect class="cls-1" x="51.42" y="67.82" width="31.85" height="11.16"/><path class="cls-1" d="M198,1020.48c1.66,1.66,9.59-3.6,11.24-5.25a4.23,4.23,0,0,0-6-6C201.62,1010.9,196.36,1018.83,198,1020.48Z" transform="translate(-130.35 -954.06)"/><path class="cls-1" d="M197.38,1020.48c-1.65,1.66-9.58-3.6-11.24-5.25a4.23,4.23,0,0,1,6-6C193.78,1010.9,199,1018.83,197.38,1020.48Z" transform="translate(-130.35 -954.06)"/><line class="cls-1" x1="67.66" y1="66.42" x2="67.66" y2="78.98"/></svg>