<svg id="Layer_1" data-name="Layer 1" xmlns="http://www.w3.org/2000/svg" viewBox="0 0 86.22 84">
    <defs>
        <style>.cls-1{fill:none;stroke:#010101;stroke-miterlimit:10;stroke-width:2px;}</style>
    </defs>
    <polyline class="cls-1" points="56 33 56 1 1 1 1 83 56 83 56 57"/>
    <line class="cls-1" x1="13" y1="11" x2="45" y2="11"/>
    <line class="cls-1" x1="13" y1="25" x2="45" y2="25"/>
    <line class="cls-1" x1="13" y1="39" x2="45" y2="39"/>
    <line class="cls-1" x1="13" y1="53" x2="37" y2="53"/>
    <line class="cls-1" x1="13" y1="66" x2="25" y2="66"/>
    <path class="cls-1"
          d="M42.31,63.12l9.93-2.4A167.51,167.51,0,0,0,65.35,47c2.19-2.55,4.25-5.08,6.15-7.55-2.18-.73-3.77-1.29-3.77-1.29l5.8-1.4c8.87-12,13.59-22,11-24.28-1.68-1.44-6.07.6-11.79,5l-1.35,7.91s-1-2.25-2.12-5.06a160.13,160.13,0,0,0-16,16.26q-1.56,1.83-3,3.63l-2.1,12.2s-1.24-2.9-2.58-6.2c-9.17,12.3-14.1,22.61-11.44,24.89,1.83,1.57,6.86-1,13.33-6.28C44.61,63.93,42.31,63.12,42.31,63.12Z"/>
    <line class="cls-1" x1="84.37" y1="12.66" x2="27.25" y2="79.21"/>
</svg>