<svg id="Layer_1" data-name="Layer 1" xmlns="http://www.w3.org/2000/svg" viewBox="0 0 98.69 75.46"><defs><style>.cls-1{fill:none;stroke:#000;stroke-linecap:round;stroke-linejoin:round;stroke-width:2px;}</style></defs><rect class="cls-1" x="1" y="1" width="96.69" height="14.39"/><rect class="cls-1" x="5.06" y="15.39" width="89.5" height="6.97"/><polyline class="cls-1" points="29.24 74.46 94.57 74.46 94.57 22.36"/><polyline class="cls-1" points="11.52 22.36 11.52 74.46 29.24 74.46"/><polyline class="cls-1" points="5.06 22.36 5.06 74.46 11.52 74.46"/><line class="cls-1" x1="55.91" y1="22.36" x2="55.91" y2="74.46"/><line class="cls-1" x1="56.91" y1="60.7" x2="86.77" y2="60.7"/><line class="cls-1" x1="86.77" y1="22.36" x2="86.77" y2="74.46"/><line class="cls-1" x1="11.52" y1="30.17" x2="55.91" y2="30.17"/><rect class="cls-1" x="22.93" y="34.76" width="22.97" height="39.7"/><circle class="cls-1" cx="39.4" cy="59.96" r="1.65"/><rect class="cls-1" x="61.9" y="22.36" width="5.02" height="8.75"/><rect class="cls-1" x="71.11" y="27.7" width="5.28" height="8.04"/><rect class="cls-1" x="81.23" y="32.98" width="4.54" height="7.05"/><rect class="cls-1" x="55.91" y="35.74" width="7.27" height="7.27"/><rect class="cls-1" x="66.92" y="39.37" width="6.83" height="6.83"/><rect class="cls-1" x="77.71" y="44.98" width="9.06" height="7.16"/><rect class="cls-1" x="59.55" y="49.83" width="5.94" height="10.88"/><rect class="cls-1" x="70.34" y="55.27" width="10.35" height="5.44"/><path d="M135,1391v.15c0,.47.13.78.67.78a.58.58,0,0,0,.61-.63c0-.46-.23-.63-.91-.86-.91-.32-1.33-.69-1.33-1.54a1.39,1.39,0,0,1,1.58-1.49c.91,0,1.57.39,1.57,1.36v.14h-1c0-.47-.17-.75-.56-.75a.52.52,0,0,0-.58.59c0,.31.09.51.52.69l.79.34a1.31,1.31,0,0,1,1,1.35c0,1.07-.65,1.55-1.76,1.55s-1.62-.54-1.62-1.48v-.2Z" transform="translate(-128.64 -1381.9)"/><path d="M138,1387.51h1v1.94h1.2v-1.94h1v5.07h-1v-2.25h-1.2v2.25h-1Z" transform="translate(-128.64 -1381.9)"/><path d="M143.16,1387.51h1.27l1.34,5.07H144.7l-.23-1.07h-1.35l-.24,1.07h-1.06Zm.14,3.16h1l-.49-2.28h0Z" transform="translate(-128.64 -1381.9)"/><path d="M147.33,1387.51v2h0l1.3-2h1.11l-1.38,2.17,1.53,2.9h-1.15l-1-2.08-.38.58v1.5h-1v-5.07Z" transform="translate(-128.64 -1381.9)"/><path d="M153.14,1387.51v.84h-1.82v1.19H153v.84h-1.71v1.36h1.89v.84H150.3v-5.07Z" transform="translate(-128.64 -1381.9)"/><path d="M154.72,1391v.15c0,.47.14.78.68.78a.59.59,0,0,0,.61-.63c0-.46-.23-.63-.91-.86-.91-.32-1.33-.69-1.33-1.54a1.39,1.39,0,0,1,1.57-1.49c.91,0,1.57.39,1.57,1.36v.14h-1c0-.47-.16-.75-.55-.75a.53.53,0,0,0-.59.59c0,.31.1.51.53.69l.79.34a1.31,1.31,0,0,1,1,1.35c0,1.07-.66,1.55-1.77,1.55s-1.61-.54-1.61-1.48v-.2Z" transform="translate(-128.64 -1381.9)"/><path d="M157.77,1387.51h1.79A1.34,1.34,0,0,1,161,1389a1.42,1.42,0,0,1-1.61,1.53h-.55v2h-1Zm1,2.29h.46c.4,0,.68-.24.68-.76s-.2-.78-.71-.78h-.43Z" transform="translate(-128.64 -1381.9)"/><path d="M164.47,1387.51v.84h-1.81v1.19h1.71v.84h-1.71v1.36h1.88v.84h-2.9v-5.07Z" transform="translate(-128.64 -1381.9)"/><path d="M166.22,1387.51h1.27l1.34,5.07h-1.06l-.24-1.07h-1.35l-.23,1.07h-1.07Zm.14,3.16h1l-.49-2.28h0Z" transform="translate(-128.64 -1381.9)"/><path d="M169.37,1387.51h1.89a1.2,1.2,0,0,1,1.35,1.31c0,.67-.27,1.13-.85,1.25h0c.7.09.81.48.82,1.55,0,.53,0,.81.23.91v0H171.7a1,1,0,0,1-.13-.53l0-1c0-.4-.19-.64-.6-.64h-.55v2.14h-1Zm1,2.22h.43c.49,0,.76-.22.76-.77a.63.63,0,0,0-.71-.7h-.48Z" transform="translate(-128.64 -1381.9)"/><path d="M176.34,1387.51v.84h-1.82v1.19h1.71v.84h-1.71v1.36h1.89v.84H173.5v-5.07Z" transform="translate(-128.64 -1381.9)"/><path d="M180,1387.51h1.26l1.35,5.07h-1.07l-.23-1.07h-1.35l-.24,1.07h-1.06Zm.13,3.16h1l-.49-2.28h0Z" transform="translate(-128.64 -1381.9)"/><path d="M184.29,1387.51l1.24,3.47h0v-3.47h.94v5.07h-1.16l-1.26-3.55h0v3.55h-.94v-5.07Z" transform="translate(-128.64 -1381.9)"/><path d="M187.42,1387.51h1.68c1.42,0,1.68,1,1.68,2.46,0,1.8-.39,2.61-1.74,2.61h-1.62Zm1,4.32h.45c.71,0,.85-.45.85-1.83,0-1.15-.09-1.74-.87-1.74h-.43Z" transform="translate(-128.64 -1381.9)"/><path d="M194.8,1389.22c0-.74-.15-1.06-.62-1.06s-.64.52-.64,2,.22,1.81.66,1.81.64-.19.64-1.29h1c0,1.1-.27,2-1.61,2-1.54,0-1.73-1.09-1.73-2.63s.19-2.64,1.73-2.64,1.57,1.07,1.57,1.81Z" transform="translate(-128.64 -1381.9)"/><path d="M198.24,1387.41c1.54,0,1.73,1.09,1.73,2.64s-.19,2.63-1.73,2.63-1.72-1.09-1.72-2.63S196.71,1387.41,198.24,1387.41Zm0,4.52c.61,0,.71-.52.71-1.88s-.1-1.89-.71-1.89-.7.53-.7,1.89S197.64,1391.93,198.24,1391.93Z" transform="translate(-128.64 -1381.9)"/><path d="M200.78,1387.51h1.52l.72,3.58h0l.73-3.58h1.51v5.07h-.93v-4h0l-.9,4h-.8l-.9-4h0v4h-.94Z" transform="translate(-128.64 -1381.9)"/><path d="M206.2,1387.51H208a1.34,1.34,0,0,1,1.39,1.52,1.42,1.42,0,0,1-1.61,1.53h-.55v2h-1Zm1,2.29h.45c.41,0,.69-.24.69-.76s-.2-.78-.71-.78h-.43Z" transform="translate(-128.64 -1381.9)"/><path d="M210.67,1387.51h1.26l1.35,5.07h-1.07l-.23-1.07h-1.35l-.24,1.07h-1.07Zm.13,3.16h1l-.49-2.28h0Z" transform="translate(-128.64 -1381.9)"/><path d="M215,1387.51l1.24,3.47h0v-3.47h.94v5.07H216l-1.26-3.55h0v3.55h-.94v-5.07Z" transform="translate(-128.64 -1381.9)"/><path d="M218.89,1387.51l.67,2h0l.71-2h1.11l-1.31,3.08v2h-1v-2l-1.31-3.08Z" transform="translate(-128.64 -1381.9)"/><rect class="cls-1" x="26.75" y="39.37" width="15" height="15"/></svg>