
<svg id="Layer_1" data-name="Layer 1" xmlns="http://www.w3.org/2000/svg" viewBox="0 0 17.92 17.92"><defs><style>.cls-1{fill:#fff;}</style></defs><path class="cls-1" d="M9,1.62c2.39,0,2.67,0,3.62,0A4.73,4.73,0,0,1,14.24,2a2.63,2.63,0,0,1,1,.67,2.63,2.63,0,0,1,.67,1,4.73,4.73,0,0,1,.31,1.66c.05,1,.05,1.23.05,3.62s0,2.68-.05,3.62a4.8,4.8,0,0,1-.31,1.67,2.78,2.78,0,0,1-.67,1,2.87,2.87,0,0,1-1,.67,5.05,5.05,0,0,1-1.66.3c-.95.05-1.23.06-3.62.06s-2.68,0-3.62-.06A5,5,0,0,1,3.68,16a3,3,0,0,1-1-.67,3.06,3.06,0,0,1-.67-1,5.13,5.13,0,0,1-.3-1.67c0-.94-.06-1.23-.06-3.62s0-2.67.06-3.62A5.05,5.05,0,0,1,2,3.68a2.87,2.87,0,0,1,.67-1,2.74,2.74,0,0,1,1-.67,4.68,4.68,0,0,1,1.66-.31c.94,0,1.23,0,3.62,0M9,0C6.53,0,6.22,0,5.27.05A6.78,6.78,0,0,0,3.09.47,4.53,4.53,0,0,0,.47,3.09,6.78,6.78,0,0,0,.05,5.27C0,6.22,0,6.53,0,9s0,2.74.05,3.69a6.78,6.78,0,0,0,.42,2.18,4.53,4.53,0,0,0,2.62,2.62,6.78,6.78,0,0,0,2.18.42c1,0,1.26.05,3.69.05s2.74,0,3.69-.05a6.78,6.78,0,0,0,2.18-.42,4.53,4.53,0,0,0,2.62-2.62,6.78,6.78,0,0,0,.42-2.18c0-1,.05-1.26.05-3.69s0-2.74-.05-3.69a6.78,6.78,0,0,0-.42-2.18A4.53,4.53,0,0,0,14.83.47,6.78,6.78,0,0,0,12.65.05C11.7,0,11.39,0,9,0Z"/><path class="cls-1" d="M9,4.36A4.6,4.6,0,1,0,13.56,9,4.6,4.6,0,0,0,9,4.36ZM9,12a3,3,0,1,1,3-3A3,3,0,0,1,9,12Z"/><path class="cls-1" d="M14.82,4.18A1.08,1.08,0,1,1,13.74,3.1,1.07,1.07,0,0,1,14.82,4.18Z"/></svg>