<svg id="Layer_1" data-name="Layer 1" xmlns="http://www.w3.org/2000/svg" viewBox="0 0 90.02 73.81"><defs><style>.cls-1{fill:none;stroke:#fff;stroke-miterlimit:10;stroke-width:2px;}</style></defs><path class="cls-1" d="M139,312.29a17.48,17.48,0,1,1-35,0V281.75a17.5,17.5,0,1,1,35,0Z" transform="translate(-76.64 -263.19)"/><line class="cls-1" x1="27.36" y1="20.81" x2="37.36" y2="20.81"/><line class="cls-1" x1="27.36" y1="32.81" x2="37.36" y2="32.81"/><line class="cls-1" x1="27.36" y1="46.81" x2="37.36" y2="46.81"/><line class="cls-1" x1="51.36" y1="20.81" x2="62.36" y2="20.81"/><line class="cls-1" x1="51.36" y1="33.81" x2="62.36" y2="33.81"/><line class="cls-1" x1="51.36" y1="46.81" x2="62.36" y2="46.81"/><path class="cls-1" d="M134.38,336c-3.23-3-7.91-5.83-13.09-5.83S111.4,333,108.16,336Z" transform="translate(-76.64 -263.19)"/><path class="cls-1" d="M154.53,273a31.54,31.54,0,0,1,.22,47.9" transform="translate(-76.64 -263.19)"/><path class="cls-1" d="M149.4,278.11a24.34,24.34,0,0,1,.22,37.66" transform="translate(-76.64 -263.19)"/><path class="cls-1" d="M144,283.6a16.68,16.68,0,0,1,.18,26.71" transform="translate(-76.64 -263.19)"/><path class="cls-1" d="M88.77,273a31.54,31.54,0,0,0-.22,47.9" transform="translate(-76.64 -263.19)"/><path class="cls-1" d="M93.9,278.11a24.32,24.32,0,0,0-.22,37.66" transform="translate(-76.64 -263.19)"/><path class="cls-1" d="M99.3,283.6a16.67,16.67,0,0,0-.19,26.71" transform="translate(-76.64 -263.19)"/></svg>