<svg id="Layer_1" data-name="Layer 1" xmlns="http://www.w3.org/2000/svg" viewBox="0 0 89.47 67"><defs><style>.cls-1{fill:none;stroke:#000;stroke-linecap:round;stroke-linejoin:round;stroke-width:2px;}</style></defs><path class="cls-1" d="M175.78,475.43h-41.7a4.9,4.9,0,0,1-4.9-4.9V435.77a4.9,4.9,0,0,1,4.9-4.9h57.23a4.9,4.9,0,0,1,4.9,4.9V455" transform="translate(-128.18 -429.87)"/><line class="cls-1" x1="1" y1="8.37" x2="68.03" y2="8.37"/><line class="cls-1" x1="1" y1="17.08" x2="68.03" y2="17.08"/><circle class="cls-1" cx="68.03" cy="45.56" r="20.44"/><rect class="cls-1" x="59.18" y="40" width="17.69" height="17.69" rx="2.67"/><path class="cls-1" d="M190.5,469.87V467.1a5.72,5.72,0,0,1,11.43,0v2.77" transform="translate(-128.18 -429.87)"/><path class="cls-1" d="M193.68,469.24v-1.88a2.53,2.53,0,0,1,5.06,0v1.88" transform="translate(-128.18 -429.87)"/><path class="cls-1" d="M199.27,476.81a3.06,3.06,0,1,0-4.33,2.78v2.82a1.28,1.28,0,0,0,2.55,0v-2.82A3,3,0,0,0,199.27,476.81Z" transform="translate(-128.18 -429.87)"/></svg>