<svg id="Layer_1" data-name="Layer 1" xmlns="http://www.w3.org/2000/svg" viewBox="0 0 139.03 83.53"><defs><style>.cls-1{fill:none;stroke:#000;stroke-miterlimit:10;stroke-width:2px;}</style></defs><polygon class="cls-1" points="43.68 7.2 41.8 1.25 1.25 14.05 20.34 74.55 36.43 69.48 25.12 10.77 43.68 7.2"/><polygon class="cls-1" points="58.92 17.99 69.85 18.17 66.88 2.73 43.68 7.2 25.12 10.77 36.43 69.48 37.12 73.07 58.1 69.03 58.92 17.99"/><polygon class="cls-1" points="94.65 18.57 69.85 18.17 58.92 17.99 58.1 69.03 57.9 81.43 100.42 82.11 100.5 77.04 82.26 72.88 94.65 18.57"/><polygon class="cls-1" points="137.83 20.48 96.37 11.02 94.65 18.57 82.26 72.88 100.5 77.04 123.71 82.34 137.83 20.48"/></svg>