<svg id="Isolation_Mode" data-name="Isolation Mode" xmlns="http://www.w3.org/2000/svg" viewBox="0 0 19.97 16.23"><defs><style>.cls-1{fill:#fff;}</style></defs><path class="cls-1" d="M988.39,11730.22a8,8,0,0,1-2.35.65,4.11,4.11,0,0,0,1.8-2.27,8.1,8.1,0,0,1-2.6,1,4.1,4.1,0,0,0-7,3.74,11.62,11.62,0,0,1-8.45-4.28,4.11,4.11,0,0,0,1.27,5.47,4.12,4.12,0,0,1-1.85-.51.07.07,0,0,0,0,0,4.12,4.12,0,0,0,3.29,4,4.2,4.2,0,0,1-1.08.14,4.9,4.9,0,0,1-.77-.07,4.11,4.11,0,0,0,3.83,2.84,8.22,8.22,0,0,1-5.09,1.76,7.93,7.93,0,0,1-1-.06,11.65,11.65,0,0,0,17.94-9.82c0-.18,0-.35,0-.53a8.39,8.39,0,0,0,2-2.12Z" transform="translate(-968.42 -11728.3)"/></svg>