<svg id="Layer_1" data-name="Layer 1" xmlns="http://www.w3.org/2000/svg" viewBox="0 0 92.42 67.17"><defs><style>.cls-1{fill:none;stroke:#000;stroke-linecap:round;stroke-linejoin:round;stroke-width:2px;}</style></defs><path d="M208.61,1203.81h0" transform="translate(-133.4 -1167.46)"/><polyline points="75.22 36.35 75.22 36.35 75.22 36.35 75.22 36.35"/><polyline points="75.22 36.35 75.22 36.35 75.22 36.35 75.22 36.35"/><polyline points="70.52 35.07 70.52 35.07 70.52 35.06 70.52 35.07"/><path d="M205.61,1202.27h0" transform="translate(-133.4 -1167.46)"/><path d="M206.43,1204.19h0" transform="translate(-133.4 -1167.46)"/><path d="M209.26,1203.69h0" transform="translate(-133.4 -1167.46)"/><polyline points="70.52 35.07 70.52 35.07 70.52 35.07 70.52 35.07"/><path d="M196.25,1201.13h0c.57,0,.92-.32.89-.76a.63.63,0,0,0-.72-.61c-.82,0-.72.89-1.14.91a.15.15,0,0,1-.18-.15c0-.14.09-.21.32-.22l0-.44h0c-.47.05-.72.28-.7.66a.6.6,0,0,0,.67.59c.72,0,.65-.88,1.11-.9a.22.22,0,0,1,.26.2c0,.16-.15.27-.45.28h-.06Zm-.06-2,0-.24,1,.1.05-.47-2.42-.25-.05.47,1,.1,0,.25-1-.11,0,.47,2.41.26,0-.47Zm1-1.61.28,0,.12-.43-2.47-.19-.13.48,2.22,1.09.12-.44-.26-.12Zm-.29,0-.09.32-.77-.38Zm.7-.43.19-.44-.84-.37,1,0,.18-.43-1.36,0-.86-.94-.18.42.67.71-.83-.36-.19.43Zm1.14-2.15-.39-.24-.34.53-.45-.28.28-.45-.39-.24-.28.44-.44-.27.34-.54-.39-.24-.59.94,2.06,1.29Zm-.77-.55,0,0c.43.36.88.38,1.16,0a.63.63,0,0,0-.12-.94c-.63-.53-1.13.17-1.46-.1a.16.16,0,0,1,0-.24c.08-.1.21-.08.38.06l.28-.33,0,0c-.39-.27-.72-.28-1,0a.6.6,0,0,0,.1.88c.56.46,1.07-.2,1.43.09.11.1.14.23.06.32s-.3.1-.52-.09l0,0Zm1.61-.45.34-.31-.66-.73.21-.2a.39.39,0,0,0,0-.64l-.36-.4a.4.4,0,0,0-.65,0l-.56.5Zm-.63-1.38-.35-.39.08-.07c.09-.08.18-.06.31.07s.14.23,0,.32Zm2.38,0-.26-.37-.52.35-.3-.43.43-.3-.26-.38-.43.3-.3-.43.53-.36-.26-.38-.91.63,1.37,2Zm.74-.68.17.23.41-.2-1.47-2-.45.22.62,2.39.41-.19-.07-.28Zm-.16-.24-.3.15-.22-.84Zm.78.26.45-.14-.29-1,.07,0c.17,0,.21,0,.27.19l.14.47a.48.48,0,0,0,.13.25l.45-.13a.36.36,0,0,1-.13-.21l-.17-.56a.4.4,0,0,0-.45-.3.46.46,0,0,0,.19-.61l-.05-.17a.43.43,0,0,0-.61-.33l-.69.21Zm0-1.53-.14-.51.07,0c.13,0,.2,0,.23.1l0,.19c0,.12,0,.18-.13.22Zm2.31,1-.07-.46-.62.1-.08-.53.52-.08-.07-.45-.52.08-.08-.52.63-.09-.07-.45-1.09.16.36,2.4Zm1.68-.25,0,.28.45,0L207,1189l-.5,0-.69,2.37.45,0,.08-.28Zm0-.29-.33,0,.24-.82Zm1.35-.66.2,1.53.42.11.61-2.35-.43-.11-.36,1.36-.21-1.51-.42-.11-.61,2.35.44.11Zm.67,1.67.65.28c.34.15.53.06.72-.36l.48-1.09c.22-.5,0-.65-.27-.79l-.6-.27Zm1.23-1.62.06,0c.14.06.16.12.1.27l-.44,1c-.07.15-.13.17-.27.11l-.06,0Zm1.83,2.15-.25.33c-.08.11-.15.13-.23.07s-.07-.13,0-.24l.71-.92c.08-.11.15-.13.22-.07s.07.13,0,.24l-.26.33.38.29.27-.35a.61.61,0,1,0-1-.74l-.73,1a.55.55,0,0,0,.09.88.57.57,0,0,0,.88-.14l.26-.34Zm1.09-.11-.86.83a.61.61,0,1,0,.85.88l.86-.83a.61.61,0,1,0-.85-.88m.5.55-.83.81c-.1.09-.17.1-.23,0s0-.14.05-.23l.83-.81c.1-.1.17-.11.23,0s0,.14-.05.24m-.34,2.44,1.47-.48-1.23.82.24.36,2-1.35-.29-.43-1.4.44.93-1.14-.29-.43-2,1.35.24.36,1.23-.83-1,1.18Zm.49.81.19.43.91-.41.11.26a.4.4,0,0,0,.6.24l.49-.22a.4.4,0,0,0,.22-.61l-.3-.68Zm1.51-.17.48-.21,0,.1c.05.11,0,.19-.16.26s-.26.07-.31,0Zm-.58,1.83-.26.13.12.44,2.21-1.11-.13-.48-2.46.2.12.44.28,0Zm.26-.12-.09-.32.86-.07Zm1.09,1-1.36.74.05.42,2.41-.27,0-.44-1.39.15,1.33-.73-.05-.43-2.41.27,0,.44Zm-1.35,2,.85,0,1.55.55,0-.47-.85-.28.87-.2,0-.48-1.59.43-.85,0Z" transform="translate(-133.4 -1167.46)"/><path d="M195.09,1203l.15.44.87-.29-.75.65.15.44,1-.9,1.27.11-.14-.43-1-.07.85-.29-.15-.45Zm.56,1.51.2.43,2.2-1-.2-.43Zm.37.75.58,1,.39-.23-.34-.58,1.69-1-.24-.41Zm2.06-.06-.94.75a.61.61,0,1,0,.76,1l.94-.74a.62.62,0,1,0-.76-1m.45.6-.91.72c-.11.09-.18.09-.24,0s0-.14.07-.23l.92-.72c.1-.08.17-.09.23,0s0,.14-.07.22m-.06,2.52,1.29-.83-1,1.11.33.28,1.6-1.82-.39-.34-1.25.78.62-1.34-.39-.34-1.6,1.82.32.28,1-1.11-.67,1.39Zm2,1.42.24-.39-.55-.33.28-.46.45.28.24-.4-.45-.27.27-.44.54.32.24-.39-1-.57-1.26,2.08Zm1.16.54.77-1.82.38.17.18-.42-1.21-.52-.18.42.39.17-.77,1.81Zm1.81.57.12-.44-.61-.17.14-.51.51.13.12-.44-.51-.14.13-.5.61.17.12-.44-1.07-.29-.63,2.34Zm.43.09.47,0,.11-1h.08c.18,0,.2,0,.17.28l-.05.48a.47.47,0,0,0,0,.28l.47,0a.4.4,0,0,1,0-.24l.06-.58a.39.39,0,0,0-.3-.45c.3,0,.38-.23.41-.49l0-.17c0-.34-.09-.5-.43-.54l-.72-.08Zm.63-1.39.06-.53h.08c.13,0,.18.06.17.18l0,.2c0,.12-.08.16-.21.15Zm1.88,1.54,1.32-.15-.05-.46-.68.08.45-2-1.29.15.05.45.65-.07Zm2.75-.5-.11-.44-.62.16-.13-.52.51-.13-.12-.45-.51.14-.13-.51.62-.16-.12-.44-1.07.28.61,2.35Zm.4-.13.43-.18-.38-.94.07,0c.16-.07.2,0,.29.17l.18.44c.06.15.08.18.16.24l.43-.18a.32.32,0,0,1-.15-.19l-.23-.53a.4.4,0,0,0-.48-.26.45.45,0,0,0,.13-.62l-.07-.17a.42.42,0,0,0-.64-.26l-.66.27Zm-.12-1.53-.2-.49.07,0c.13,0,.19,0,.24.08l.07.19c.05.11,0,.17-.11.22Zm.63-.65.61,1a.61.61,0,1,0,1.05-.63l-.61-1a.61.61,0,1,0-1,.63m.65-.37.59,1c.07.12.07.19,0,.24s-.15,0-.22-.11l-.59-1c-.07-.12-.07-.19,0-.24s.15,0,.22.1m2.41.46.34-.32-.68-.72.2-.2a.39.39,0,0,0,0-.64l-.37-.39a.4.4,0,0,0-.65,0l-.55.52Zm-.66-1.37-.36-.38.07-.07c.1-.08.18-.07.31.07s.15.22.05.31Zm2-.42.25.13.29-.35-2.19-1.15-.31.39,1.6,1.88.28-.35-.18-.22Zm-.25-.14-.2.26-.56-.66Zm.93-.3.24-.4-.88-.52,0-.07c.08-.15.13-.15.33,0l.41.24c.14.09.17.1.27.1l.24-.4a.5.5,0,0,1-.24-.06l-.5-.3a.41.41,0,0,0-.54.09.45.45,0,0,0-.27-.57l-.16-.09a.43.43,0,0,0-.67.17l-.36.62Zm-1-1.14-.45-.27,0-.06c.07-.12.13-.14.24-.08l.17.1c.1.06.11.13,0,.25Zm1.78-.21.19-.43-2.21-1-.19.43Zm-.54-1h0c.54.17,1,0,1.1-.39a.64.64,0,0,0-.46-.83c-.79-.26-1,.58-1.39.45a.17.17,0,0,1-.12-.21c.05-.13.17-.16.39-.09l.13-.42h0c-.46-.11-.77,0-.89.38a.59.59,0,0,0,.42.78c.68.22.92-.59,1.36-.45a.22.22,0,0,1,.17.28c0,.16-.24.2-.52.11l-.06,0Z" transform="translate(-133.4 -1167.46)"/><path d="M202.77,1194.84c0,.08-.07.16-.1.23a2,2,0,0,0-.24,1,5.14,5.14,0,0,0,0,1,1,1,0,0,1,0,.24c0,.14.05.2.18.15a1.35,1.35,0,0,0,.26-.15.42.42,0,0,1,.44-.07l.22.1.44.19a.22.22,0,0,1,.17.27,1.51,1.51,0,0,0,0,.3,1.51,1.51,0,0,1-.11.84.26.26,0,0,1-.07.11.18.18,0,0,1-.12,0,.34.34,0,0,0-.28,0c-.15.08-.19.07-.29-.07a.14.14,0,0,0-.15-.07.4.4,0,0,1-.32-.06.26.26,0,0,0-.42.17,1.79,1.79,0,0,0,0,.73,4.7,4.7,0,0,0,.39,1.22.89.89,0,0,0,.16.22.18.18,0,0,0,.3,0l0-.08a.9.9,0,0,1,.23-.32.28.28,0,0,0,.09-.33.36.36,0,0,1,.15-.44.29.29,0,0,1,0,.09l-.06.24c0,.13,0,.17.08.25a1.35,1.35,0,0,0,.26.15.15.15,0,0,0,.23-.08v0c.07-.23.25-.27.46-.26h.13a.16.16,0,0,0,.2-.17c0-.13-.08-.22-.2-.2a.73.73,0,0,0-.28.1.7.7,0,0,0-.16.14.12.12,0,0,1-.14,0,.13.13,0,0,1-.07-.13,3.43,3.43,0,0,1,.06-.34c.09-.44.19-.87.28-1.3a1.55,1.55,0,0,1,.22-.55.44.44,0,0,0,.06-.43c-.06-.16,0-.23.16-.23a.63.63,0,0,0,.3-.1.64.64,0,0,1,.43-.1,1,1,0,0,0,.38,0,1,1,0,0,1,1,.34,3.06,3.06,0,0,1,.21.29l.15.21c.12.17.26.17.37,0a2.93,2.93,0,0,0,.23-.43.48.48,0,0,0,0-.37.56.56,0,0,1,0-.44c.05-.12.1-.24.14-.36a1.69,1.69,0,0,0-.13-1.32,4,4,0,0,0-.44-.58c-.1-.12-.23-.23-.34-.35a.66.66,0,0,0-.37-.21,4.58,4.58,0,0,0-1-.09h-.77a2.32,2.32,0,0,0-.82.18l-.21.08a3.08,3.08,0,0,0-1,.46l-.21.12a.42.42,0,0,1,.16-.25l.47-.32.31-.25c.09-.07.17-.15.26-.21a.57.57,0,0,1,.46,0l.15,0a.32.32,0,0,0,.27,0,.55.55,0,0,0,.14-.09.53.53,0,0,1,.35-.09l.26,0a.67.67,0,0,1,.42,0,.56.56,0,0,0,.49,0,1,1,0,0,1,.52-.09h.31a1,1,0,0,1,.76.34,3.5,3.5,0,0,1,.24.3.45.45,0,0,0,.42.19h.07a.23.23,0,0,1,.27.14.25.25,0,0,0,.21.15.76.76,0,0,1,.59.43.82.82,0,0,1,.12.53.55.55,0,0,0,.1.35,1.28,1.28,0,0,1,.11.33,4.33,4.33,0,0,1,.08.5,1.82,1.82,0,0,1,0,.33v.24a.18.18,0,0,1-.08.19l-.05,0s0,.07,0,.09a.11.11,0,0,0,.08,0,.44.44,0,0,1,.37.55.45.45,0,0,0,.16.49l.13.11a.76.76,0,0,1,.13.17,1.75,1.75,0,0,1,.16.84,1.17,1.17,0,0,1-.31.64c-.14.15-.14.21-.05.39l.06.11a.5.5,0,0,1-.1.62.45.45,0,0,0-.14.33c0,.11,0,.21,0,.31a.36.36,0,0,0,.25.34c.13.07.26.14.38.22a.41.41,0,0,1,.19.33v.15a.31.31,0,0,1-.14.31.52.52,0,0,0-.21.41.92.92,0,0,1-.34.6.54.54,0,0,1-.19.08c-.11,0-.14.09-.15.22a1.05,1.05,0,0,1-.06.24.38.38,0,0,1-.47.21l-.26-.07c-.14,0-.19,0-.19.14s0,.25-.24.32a.39.39,0,0,0-.15.11.6.6,0,0,1-.47.2.41.41,0,0,0-.19.05,3.07,3.07,0,0,0-.31.17.64.64,0,0,1-.38.1h-.13a.24.24,0,0,0-.22.11.48.48,0,0,1-.29.19.9.9,0,0,0-.21.08.46.46,0,0,1-.48-.06,1,1,0,0,0-.17-.1.36.36,0,0,0-.32,0,.42.42,0,0,1-.36,0,.2.2,0,0,0-.29.09l-.11.19a.35.35,0,0,1-.33.2,2.31,2.31,0,0,1-.64-.1.38.38,0,0,1-.23-.2l-.06-.11a.26.26,0,0,0-.27-.11l-.38,0a.49.49,0,0,1-.42-.16l-.07-.1a.16.16,0,0,0-.21,0h0a.38.38,0,0,1-.32.09,1,1,0,0,1-.51-.24.56.56,0,0,1,0-.08.09.09,0,0,1,.07-.14c.06,0,.12,0,.11-.12s-.06-.07-.16,0h-.13a1.52,1.52,0,0,0-.2-.06.68.68,0,0,1-.31-.08s-.06,0-.09,0a.26.26,0,0,1-.28-.07,1.12,1.12,0,0,1-.18-.2.48.48,0,0,1-.07-.39,1.94,1.94,0,0,0,0-.34.28.28,0,0,0-.12-.21.35.35,0,0,1-.17-.38.18.18,0,0,0-.11-.21.43.43,0,0,1-.19-.21c0-.08-.07-.15-.1-.23a.38.38,0,0,1,0-.37.53.53,0,0,0,.08-.15.37.37,0,0,1,.2-.24.32.32,0,0,0,.17-.3c0-.19,0-.39,0-.58a.35.35,0,0,1,.2-.35l.07,0a.18.18,0,0,0,.06-.17.14.14,0,0,0-.13-.1.62.62,0,0,1-.42-.32.36.36,0,0,1-.06-.27.9.9,0,0,0,0-.4.54.54,0,0,1,.14-.55,2.75,2.75,0,0,0,.22-.26,1,1,0,0,0,.11-.2c0-.07,0-.13.07-.19a.21.21,0,0,0-.06-.25l-.06-.07a.2.2,0,0,1,0-.32.2.2,0,0,0,.06-.24.5.5,0,0,0,0-.13.53.53,0,0,1,.09-.54.31.31,0,0,1,.34-.11.21.21,0,0,1,.15.25,1.21,1.21,0,0,0,0,.14c0,.09,0,.16.06.19a.15.15,0,0,0,.19,0,.61.61,0,0,0,.09-.18c0-.07,0-.14,0-.21a.5.5,0,0,1,.12-.28.25.25,0,0,0,.07-.22.19.19,0,0,1,0-.12.7.7,0,0,1,.13-.16.58.58,0,0,0,.17-.34,3,3,0,0,1,.07-.43.91.91,0,0,1,.5-.6l.17-.09Zm5.58,8.82a.87.87,0,0,0,.09-.11.17.17,0,0,0-.06-.24.17.17,0,0,0-.22.06.16.16,0,0,0,.06.23l.13.06a.1.1,0,0,1,0,0,.2.2,0,0,0,.09.33.17.17,0,0,0,.21-.1.15.15,0,0,0-.07-.21Zm-1.27-2.16h0s0,0,0-.08.07-.25.1-.38a.71.71,0,0,0,0-.25c0-.13,0-.14.11-.2a.19.19,0,0,0,.11-.19.13.13,0,0,0-.18-.14l-.12,0a1.35,1.35,0,0,1-.28,0c-.1,0-.12,0-.08-.14a.62.62,0,0,1,.35-.34c.18-.06.23-.17.18-.36a.43.43,0,0,1,0,0,.61.61,0,0,1,0-.42,1.83,1.83,0,0,0,.08-.25,1.2,1.2,0,0,0,0-.19c0-.06,0-.11,0-.17a.32.32,0,0,0-.17-.34.67.67,0,0,1-.29-.35.4.4,0,0,0-.32-.27l-.24,0a.9.9,0,0,0-.22.06c-.06,0-.06.08,0,.12s.09,0,.14.07a.87.87,0,0,1,.34.22l.09.11.5.41a.18.18,0,0,1,.08.21.17.17,0,0,1-.19.1h-.09a.48.48,0,0,0-.17,0s-.08.09-.13.14l-.17.17a.12.12,0,0,1-.17,0,.39.39,0,0,0-.46,0,.41.41,0,0,1-.39,0l-.23-.1a.25.25,0,0,0-.12,0,.57.57,0,0,0,0,.13c0,.06.06.11.08.16a.35.35,0,0,1,0,.11h0l-.15-.08c-.13-.08-.23,0-.24.11a.51.51,0,0,0,.24.56.26.26,0,0,1,.13.27,2.7,2.7,0,0,1,0,.28c-.08.31,0,.39.29.44a.57.57,0,0,1,.38.2c.06.06.11.14.17.2a.19.19,0,0,0,.28,0l.08-.07a1.7,1.7,0,0,1,.22-.15.16.16,0,0,1,.23,0,1.57,1.57,0,0,1,.14.25A1.17,1.17,0,0,1,207.08,1201.5Zm1.93,1.71.07-.09a.14.14,0,0,0,0-.22c-.09-.06-.08-.07,0-.13a.85.85,0,0,0,.2-.17.21.21,0,0,0,0-.26c0-.09-.12-.08-.2-.08a.21.21,0,0,1-.24-.16c0-.06,0-.12,0-.17a.5.5,0,0,0-.11-.17c-.12-.1-.22-.06-.25.09a.66.66,0,0,1-.09.19,1.19,1.19,0,0,1-.19.2.72.72,0,0,0-.2.32c0,.11,0,.19.11.21a2.47,2.47,0,0,0,.38,0l.36,0s.06,0,0,.07a.17.17,0,0,0,.06.25s0,.06,0,.09l-.09.1a.13.13,0,0,0,.08.22h.2c.09,0,.14,0,.16-.09a.15.15,0,0,0-.09-.19Zm-5.9-5.73a2.13,2.13,0,0,0-.3.09.73.73,0,0,0-.43.49.19.19,0,0,0,.06.22c.06,0,.12,0,.2-.06l.16-.13a.12.12,0,0,1,.13,0,.34.34,0,0,0,.17.05,1.63,1.63,0,0,1,.49,0c.11,0,.13,0,.1-.12a.19.19,0,0,1,0-.15.14.14,0,0,0-.05-.17l-.26-.14A2,2,0,0,0,203.11,1197.48Zm1.12,4.5h-.18c-.09,0-.14.07-.14.13a.14.14,0,0,0,.11.15h1c.08,0,.13-.06.17-.13a.13.13,0,0,0-.05-.17.5.5,0,0,0-.56,0A.5.5,0,0,1,204.23,1202Zm-2.55.72q-.15,0-.15.06c0,.08.07.16.14.14a1.75,1.75,0,0,0,.32-.12s.09-.08.13-.07.07.08.1.12c.16.2.08.18.32.07s.12-.11.1-.23a2.36,2.36,0,0,1,0-.28.25.25,0,0,0,0-.08.14.14,0,0,0-.23-.1.49.49,0,0,0-.13.18c0,.06,0,.14-.09.21s0,.06-.08,0a.18.18,0,0,0-.24,0A.59.59,0,0,1,201.68,1202.7Zm3.55,3a.52.52,0,0,0-.24-.46.8.8,0,0,1-.13-.13s0-.07-.07-.09a.11.11,0,0,0-.18,0,.37.37,0,0,0-.07.14,1.23,1.23,0,0,1-.14.42c-.08.12,0,.23.14.25s.08,0,.07-.08,0-.11,0-.17,0-.12.1-.15a.26.26,0,0,1,.34.19.65.65,0,0,0,0,.13s0,.11.11.1.06-.08.07-.13Zm.85-7.94a.7.7,0,0,0-.42.13.86.86,0,0,0-.18.2.08.08,0,0,0,0,.07.08.08,0,0,0,.07,0l.12,0a.75.75,0,0,1,.59,0c.1,0,.2.09.3.13a.18.18,0,0,0,.13,0,.17.17,0,0,0,0-.14.32.32,0,0,0-.08-.12l-.19-.1Zm-4.25,6.21a.56.56,0,0,0-.32.15c-.09.09-.09.12,0,.19a.29.29,0,0,1,.12.34.53.53,0,0,0,0,.12.11.11,0,0,0,0,.06.09.09,0,0,0,.07,0l.06-.07a.1.1,0,0,0,0,0l.21-.4A.22.22,0,0,0,201.83,1204Zm6.46.58a1.33,1.33,0,0,0,.1.23c.07.14.1.14.21,0a.24.24,0,0,1,.33,0l.06,0h.09s0,0,0-.08l-.05,0c-.11-.1-.23-.21-.35-.3a.39.39,0,0,0-.18-.06C208.36,1204.34,208.29,1204.42,208.29,1204.56Zm-1.77.8c0,.05,0,.13,0,.2s.06.09.13.06a.32.32,0,0,1,.36,0h.06s0,0,0-.06-.18-.3-.29-.43a.17.17,0,0,0-.23,0C206.53,1205.18,206.53,1205.26,206.52,1205.36Zm.92-.29a.6.6,0,0,0,.12.3.14.14,0,0,0,.11,0,.43.43,0,0,1,.35-.06s.08,0,0-.07a1,1,0,0,0-.35-.35A.18.18,0,0,0,207.44,1205.07Zm-4.61-.14a.34.34,0,0,1,0-.09.25.25,0,0,0-.19-.18.19.19,0,0,0-.2.1l-.06.1c0,.1,0,.14.07.17a.3.3,0,0,1,.21.25.06.06,0,0,0,0,0l0,0,.05,0a.14.14,0,0,0,0-.06Zm-1.54-2.32a.18.18,0,0,0-.19-.18.78.78,0,0,0-.21,0c-.11,0-.13.08-.08.18a.31.31,0,0,1,0,.28.28.28,0,0,0,0,.09s.06,0,.09,0a2.43,2.43,0,0,0,.32-.24S201.26,1202.66,201.29,1202.61Zm2.48,3,0-.1c0-.11,0-.22,0-.33a.31.31,0,0,0-.06-.16.16.16,0,0,0-.27,0,.67.67,0,0,0-.1.23.08.08,0,0,0,.06.11.32.32,0,0,1,.26.23S203.75,1205.63,203.77,1205.65Zm6.54-2.37c-.17,0-.25.11-.2.24a1,1,0,0,0,.16.2.07.07,0,0,0,.12,0,.45.45,0,0,1,.3-.16s.06,0,0-.06A1,1,0,0,0,210.31,1203.28Zm-.2-.45c0-.18-.1-.24-.27-.17l-.15,0c-.08,0-.1,0-.05.11a2,2,0,0,0,.23.27c.08.08.16.05.2-.06A1.06,1.06,0,0,0,210.11,1202.83Zm-5.73-1.3h0a1.17,1.17,0,0,0-.26,0,.45.45,0,0,0-.16.12.06.06,0,0,0,0,.1.5.5,0,0,0,.49,0c.08,0,.13-.12.11-.18s-.12-.07-.19-.07Zm1.5,3.56c-.1,0-.16,0-.17.1a.54.54,0,0,0,0,.22c0,.09,0,.1.15.1h.21c.07,0,.1,0,.07-.08a1,1,0,0,0-.12-.25A.41.41,0,0,0,205.88,1205.09Zm-4.28-1.89a.18.18,0,0,0,.12.19.23.23,0,0,0,.24-.07.17.17,0,0,0,0-.22.27.27,0,0,0-.23-.11C201.66,1203,201.6,1203.1,201.6,1203.2Zm9.18-.59a.36.36,0,0,0,.11.25s.07,0,.08,0a1.3,1.3,0,0,0,.15-.18.09.09,0,0,0,0-.09.4.4,0,0,0-.13-.13C210.87,1202.41,210.78,1202.47,210.78,1202.61Zm-1.29.75a.18.18,0,0,0,.19-.2.13.13,0,0,0-.14-.15.22.22,0,0,0-.23.2C209.31,1203.3,209.38,1203.36,209.49,1203.36Zm.4,1,.17-.05s.05,0,0-.08a.35.35,0,0,0-.22-.19.14.14,0,0,0-.16,0,.17.17,0,0,0,0,.19A.22.22,0,0,0,209.89,1204.39Zm-7.46-.9c0-.08-.08-.18-.14-.18a.25.25,0,0,0-.19.18.2.2,0,0,0,.22.17C202.37,1203.66,202.43,1203.57,202.43,1203.49Zm6.77.9.08,0s.06,0,.06-.07-.13-.21-.22-.19a.13.13,0,0,0-.1.15A.17.17,0,0,0,209.2,1204.39Zm-2.32,0c.1,0,.17,0,.17-.11a.14.14,0,0,0-.12-.14.18.18,0,0,0-.1,0c-.06,0-.13.06-.14.14S206.79,1204.43,206.88,1204.43Zm.94-1.31a.14.14,0,0,0-.14.14.15.15,0,0,0,.15.14.15.15,0,0,0,.16-.14A.16.16,0,0,0,207.82,1203.12Zm-2.62,3.16s0,0-.06,0a.25.25,0,0,0-.21.16.11.11,0,0,0,0,.1.12.12,0,0,0,.1,0A.26.26,0,0,0,205.2,1206.28Zm-2.08-2.11a.13.13,0,0,0-.12.14.13.13,0,0,0,.15.12.11.11,0,0,0,.12-.11A.18.18,0,0,0,203.12,1204.17Zm3.25.26a.35.35,0,0,0,.13,0s0-.07,0-.08a.39.39,0,0,0-.16-.1c-.07,0-.14,0-.15.12S206.28,1204.43,206.37,1204.43Zm-3.75-.53c0-.08,0-.13-.14-.16h-.11a.2.2,0,0,0,0,.13.15.15,0,0,0,.21.09Zm6.75-.18q-.12,0-.12.09a.13.13,0,0,0,.14.13c.08,0,.14,0,.14-.11S209.46,1203.72,209.37,1203.72Zm-6.47-.34a.13.13,0,1,0,0,.25c.07,0,.12,0,.12-.1A.14.14,0,0,0,202.9,1203.38Zm-1.71.25a.12.12,0,0,0-.24,0c0,.08.05.14.11.14A.15.15,0,0,0,201.19,1203.63Zm0-1.59s0-.08-.11-.08a.13.13,0,0,0-.14.13.1.1,0,0,0,.11.1A.15.15,0,0,0,201.15,1202Zm6.76,1.73c-.09,0-.16,0-.16.11a.1.1,0,0,0,.1.09c.07,0,.15-.06.15-.12A.08.08,0,0,0,207.91,1203.77Zm-4.83,1.25s0,0,.07.06.13-.08.13-.15,0-.08-.09-.08S203.08,1204.91,203.08,1205Zm4.34-.81a.13.13,0,0,0,.11-.12.08.08,0,0,0-.09-.09.09.09,0,0,0-.11.1A.09.09,0,0,0,207.42,1204.21Zm3.07-1.55s0-.05-.07-.05a.1.1,0,0,0-.11.12s0,.09.08.09S210.5,1202.74,210.49,1202.66ZM207,1204c.08,0,.12,0,.12-.09s0-.07-.09-.07-.1,0-.09.08S207,1204,207,1204Zm2.45,1.31c0-.06,0-.12-.09-.12s-.06.07-.07.11a.08.08,0,0,0,.07.1S209.39,1205.32,209.42,1205.29Zm-8.43-3.56,0,0a.09.09,0,0,0-.1-.1.09.09,0,0,0-.07.05S200.91,1201.72,201,1201.73Zm4.49-4.07c-.08,0-.15,0-.14.09a.07.07,0,0,0,0,0c.05,0,.14-.06.13-.1S205.49,1197.67,205.48,1197.66Zm-4.24,7.42s-.06.07-.06.1,0,0,0,.07l.09-.09Zm7.77-4.73c.07,0,.14-.07.13-.12l0,0-.11.12Zm-6.45,5.47s-.07,0-.08,0,0,0-.08.06l0,0Zm3.7.31.05-.1,0,0s-.05,0-.06.08Zm1,0s0,.06,0,.08l0,0s0,0,0-.06Zm3.31-7.81,0,0a.35.35,0,0,1,0-.08l0,0Z" transform="translate(-133.4 -1167.46)"/><path class="cls-1" d="M224.82,1168.81c-17,0-38.13-3.76-38.13,13.28v51.54a9.52,9.52,0,0,1,8.62-4.43h29.51Z" transform="translate(-133.4 -1167.46)"/><path class="cls-1" d="M148.56,1185.12v-16.31c17,0,38.13-3.76,38.13,13.28v51.54a9.52,9.52,0,0,0-8.62-4.43h-3.44" transform="translate(-133.4 -1167.46)"/><rect class="cls-1" x="1" y="30.23" width="40.23" height="34.54"/><path class="cls-1" d="M155.2,1196.43c1.5,1.5,8.69-3.27,10.18-4.76a3.83,3.83,0,1,0-5.42-5.42C158.47,1187.74,153.7,1194.93,155.2,1196.43Z" transform="translate(-133.4 -1167.46)"/><path class="cls-1" d="M154.62,1196.43c-1.49,1.5-8.68-3.27-10.18-4.76a3.83,3.83,0,1,1,5.42-5.42C151.36,1187.74,156.12,1194.93,154.62,1196.43Z" transform="translate(-133.4 -1167.46)"/><line class="cls-1" x1="21.52" y1="28.47" x2="21.52" y2="64.77"/><line class="cls-1" x1="1" y1="47.5" x2="41.23" y2="47.5"/></svg>