<svg id="Isolation_Mode" data-name="Isolation Mode" xmlns="http://www.w3.org/2000/svg" viewBox="0 0 25.11 17.66"><defs><style>.cls-1{fill:#fff;}</style></defs><g id="Lozenge"><path class="cls-1" d="M1032.15,11730.73a5.34,5.34,0,0,0-1-2.49,3.6,3.6,0,0,0-2.51-1.07c-3.52-.25-8.78-.25-8.78-.25h0s-5.27,0-8.78.25a3.63,3.63,0,0,0-2.52,1.07,5.46,5.46,0,0,0-1,2.49,38.07,38.07,0,0,0-.25,4.06v1.91a38.07,38.07,0,0,0,.25,4.06,5.53,5.53,0,0,0,1,2.5,4.35,4.35,0,0,0,2.77,1.07c2,.19,8.54.25,8.54.25s5.27,0,8.79-.26a3.62,3.62,0,0,0,2.51-1.06,5.41,5.41,0,0,0,1-2.5,38.07,38.07,0,0,0,.25-4.06v-1.91A38.07,38.07,0,0,0,1032.15,11730.73Zm-14.89,8.28V11732l6.78,3.54Z" transform="translate(-1007.29 -11726.92)"/></g></svg>