<?xml version="1.0" encoding="utf-8"?>
<!-- Generator: Adobe Illustrator 26.0.1, SVG Export Plug-In . SVG Version: 6.00 Build 0)  -->
<svg version="1.1" id="Layer_1" xmlns="http://www.w3.org/2000/svg" xmlns:xlink="http://www.w3.org/1999/xlink" x="0px" y="0px"
	 viewBox="0 0 186.99 87.71" style="enable-background:new 0 0 186.99 87.71;" xml:space="preserve">
<style type="text/css">
	.st0{fill:#FFFFFF;}
</style>
<g>
	<polyline class="st0" points="107.84,0 107.84,69.21 140.35,69.21 140.35,52.98 123.91,52.98 123.91,0 107.84,0 	"/>
	<polyline class="st0" points="86.37,0 86.37,54.25 65.44,21.12 51.39,21.12 51.39,74.27 67.46,74.27 67.46,53.88 89.52,87.71 
		102.44,74.66 102.44,0 86.37,0 	"/>
	<path class="st0" d="M48.42,54.51l-15.18-4.72c-1.01,3.7-3.03,7.03-8.36,7.03c-2.94,0-5.14-1.2-6.34-2.78
		c-1.47-1.94-2.48-4.26-2.48-16.29c0-12.03,1.01-14.35,2.48-16.29c1.19-1.57,3.4-2.77,6.34-2.77c5.32,0,7.35,3.33,8.36,7.03
		l15.18-4.7C45.98,9.29,37.19,4.27,24.79,4.27c-7.62,0-13.4,2.59-18.18,7.4C-0.27,18.61,0,27.86,0,37.77
		c0,9.9-0.27,19.15,6.61,26.09c4.77,4.81,10.56,7.4,18.18,7.4C37.19,71.26,43.95,68.03,48.42,54.51"/>
	<path class="st0" d="M181.39,46.11v-1.18h-4.21v-2.6h3.59v-1.16h-3.59v-2.53h4.21v-1.17h-5.52v8.64H181.39 M172.64,40
		c0,0.85-0.59,1.35-1.47,1.35h-1.94v-2.71h1.94C172.05,38.64,172.64,39.15,172.64,40 M174.22,46.11l-1.99-3.82
		c0.97-0.27,1.72-1.05,1.72-2.29c0-1.47-1.04-2.52-2.68-2.52h-3.35v8.64h1.31v-3.64h1.64l1.82,3.64H174.22z M166.73,37.47h-1.38
		l-1.99,6.29l-1.99-6.29h-1.36l2.84,8.64h1.02L166.73,37.47z M157.51,46.11h1.31v-8.64h-1.31V46.11z M156.02,46.11v-1.18h-4.16
		v-7.46h-1.31v8.64H156.02z M145.51,43.2v-5.73h-1.31v5.67c0,1.15-0.72,1.87-1.8,1.87c-1.08,0-1.78-0.71-1.78-1.87v-5.67h-1.31v5.73
		c0,1.78,1.33,2.99,3.09,2.99C144.16,46.18,145.51,44.98,145.51,43.2 M136.19,41.73c0,1.19-0.01,2.12-0.46,2.62
		c-0.37,0.4-0.85,0.58-1.47,0.58h-1.59v-6.29h1.59c0.62,0,1.1,0.18,1.47,0.58C136.18,39.72,136.19,40.54,136.19,41.73 M137.5,41.73
		c0-1.25,0.06-2.51-0.87-3.45c-0.54-0.54-1.33-0.81-2.23-0.81h-3.03v8.64h3.03c0.9,0,1.69-0.27,2.23-0.81
		C137.56,44.36,137.5,42.98,137.5,41.73"/>
	<path class="st0" d="M186.99,34.34v-1.17h-4.16V25.7h-1.31v8.64H186.99 M177.94,31.49h-2.66l1.35-3.84L177.94,31.49z M180.3,34.34
		l-3.17-8.64h-1.06l-3.17,8.64h1.4l0.59-1.73h3.41l0.59,1.73H180.3z M171.68,34.34V25.7h-1.31v6.07l-3.99-6.07h-1.2v8.64h1.31v-6.08
		l3.99,6.08H171.68z M161.93,30.02c0,1.74-0.08,2.22-0.51,2.68c-0.3,0.33-0.78,0.53-1.29,0.53s-0.98-0.21-1.29-0.53
		c-0.43-0.46-0.51-0.95-0.51-2.68c0-1.74,0.09-2.22,0.51-2.68c0.3-0.33,0.78-0.53,1.29-0.53s0.98,0.21,1.29,0.53
		C161.84,27.8,161.93,28.29,161.93,30.02 M163.24,30.02c0-1.66,0.02-2.62-0.82-3.47c-0.59-0.59-1.36-0.92-2.28-0.92
		c-0.92,0-1.68,0.33-2.27,0.92c-0.85,0.85-0.84,1.81-0.84,3.47s-0.01,2.62,0.84,3.47c0.59,0.59,1.35,0.92,2.27,0.92
		c0.92,0,1.69-0.33,2.28-0.92C163.26,32.64,163.24,31.68,163.24,30.02 M153.77,34.34h1.31V25.7h-1.31V34.34z M152.28,26.88V25.7
		h-6.07v1.18h2.38v7.46h1.31v-7.46H152.28z M144.13,31.49h-2.66l1.35-3.84L144.13,31.49z M146.48,34.34l-3.17-8.64h-1.06l-3.17,8.64
		h1.4l0.59-1.73h3.41l0.59,1.73H146.48z M137.86,34.34V25.7h-1.31v6.07l-3.99-6.07h-1.2v8.64h1.31v-6.08l3.99,6.08H137.86z"/>
	<path class="st0" d="M175.32,22.57V21.4h-4.21v-2.6h3.59v-1.16h-3.59v-2.53h4.21v-1.18h-5.52v8.64H175.32 M166.57,16.47
		c0,0.85-0.59,1.35-1.47,1.35h-1.94v-2.71h1.94C165.98,15.11,166.57,15.62,166.57,16.47 M168.15,22.57l-1.99-3.82
		c0.97-0.27,1.72-1.05,1.72-2.29c0-1.47-1.04-2.52-2.68-2.52h-3.35v8.64h1.31v-3.64h1.64l1.82,3.64H168.15z M160.36,15.11v-1.18
		h-6.07v1.18h2.38v7.46h1.31v-7.46H160.36z M152.8,22.57v-8.64h-1.31V20l-3.99-6.07h-1.2v8.64h1.31V16.5l3.99,6.08H152.8z
		 M144.5,22.57V21.4h-4.21v-2.6h3.59v-1.16h-3.59v-2.53h4.21v-1.18h-5.52v8.64H144.5z M137.23,19.99h-1.32
		c-0.21,0.88-0.8,1.48-1.76,1.48c-0.51,0-0.97-0.19-1.27-0.52c-0.42-0.46-0.52-0.96-0.52-2.69c0-1.74,0.1-2.23,0.52-2.69
		c0.3-0.33,0.76-0.52,1.27-0.52c0.96,0,1.54,0.61,1.75,1.48h1.33c-0.3-1.72-1.49-2.66-3.08-2.66c-0.9,0-1.67,0.33-2.27,0.92
		c-0.85,0.85-0.84,1.81-0.84,3.47s-0.01,2.62,0.84,3.47c0.59,0.59,1.37,0.92,2.27,0.92C135.72,22.65,136.94,21.71,137.23,19.99"/>
</g>
<g>
</g>
<g>
</g>
<g>
</g>
<g>
</g>
<g>
</g>
<g>
</g>
</svg>
